# xmcd
#
# Track frame offsets:
#	150
#	17022
#	32122
#	51180
#	65218
#	80989
#	98197
#	114892
#	130400
#	147027
#
# Disc length: 2166 seconds
#
# Revision: 2
# Processed by: cddbd v1.5.2PL0 Copyright (c) Steve Scherf et al.
# Submitted via: EZCDAudioConverter 6.0.2.1
#
DISCID=8c08740a
DTITLE=Trace Adkins - Proud To Be Here
DYEAR=2011
DGENRE=Country
TTITLE0=Proud To Be Here
TTITLE1=Million Dollar View
TTITLE2=Days Like This
TTITLE3=That's What You Get
TTITLE4=Just Fishin'
TTITLE5=It's A Woman Thang
TTITLE6=Love Buzz
TTITLE7=It's Who You Know
TTITLE8=Poor Folks
TTITLE9=Always Gonna Be That Way
EXTD=
EXTT0=
EXTT1=
EXTT2=
EXTT3=
EXTT4=
EXTT5=
EXTT6=
EXTT7=
EXTT8=
EXTT9=
PLAYORDER=
